<svg id="YouTube_Logo" data-name="YouTube Logo" xmlns="http://www.w3.org/2000/svg" viewBox="0 0 14 11.46"><defs><style>.cls-1{fill:#55acee;}</style></defs><title>author-twitter</title><path class="cls-1" d="M1,1.81a8.24,8.24,0,0,0,6,3s-0.35-2.71,2-3.41a2.92,2.92,0,0,1,2.89.79,5.42,5.42,0,0,0,1.84-.7A2.9,2.9,0,0,1,12.34,3,5,5,0,0,0,14,2.6a8.09,8.09,0,0,1-1.49,1.57,8.64,8.64,0,0,1-2.63,6.47A8.56,8.56,0,0,1,0,11.52,5.55,5.55,0,0,0,4.2,10.3a3.16,3.16,0,0,1-2.71-2A2.33,2.33,0,0,0,2.8,8.2,2.86,2.86,0,0,1,.53,5.31a3.52,3.52,0,0,0,1.31.35A2.93,2.93,0,0,1,1,1.81" transform="translate(0 -1.27)"/></svg>