<?xml version="1.0" encoding="utf-8"?>
<!-- Generator: Adobe Illustrator 16.0.4, SVG Export Plug-In . SVG Version: 6.00 Build 0)  -->
<!DOCTYPE svg PUBLIC "-//W3C//DTD SVG 1.1//EN" "http://www.w3.org/Graphics/SVG/1.1/DTD/svg11.dtd">
<svg version="1.1" id="Layer_1" xmlns="http://www.w3.org/2000/svg" xmlns:xlink="http://www.w3.org/1999/xlink" x="0px" y="0px"
	 width="250px" height="70px" viewBox="0 0 250 70" enable-background="new 0 0 250 70" xml:space="preserve">
<g>
	<path fill="#999999" d="M16.393,53.816c-2.39,0-4.779-0.447-7.168-1.341c-2.39-0.894-4.459-2.047-6.208-3.46l1.856-2.496
		c1.792,1.366,3.669,2.422,5.632,3.168c1.962,0.747,3.989,1.12,6.08,1.12c2.218,0,4.085-0.553,5.6-1.659
		c1.514-1.107,2.272-2.619,2.272-4.535v-0.129c0-0.936-0.235-1.744-0.704-2.427c-0.47-0.681-1.11-1.276-1.92-1.788
		c-0.811-0.511-1.728-0.937-2.752-1.277c-1.024-0.34-2.112-0.681-3.264-1.022c-1.323-0.383-2.656-0.788-4-1.214
		c-1.344-0.426-2.55-0.968-3.616-1.628c-1.067-0.66-1.931-1.479-2.592-2.459c-0.662-0.979-0.992-2.193-0.992-3.641v-0.128
		c0-1.32,0.266-2.522,0.8-3.608c0.533-1.086,1.269-2.033,2.208-2.842c0.938-0.809,2.069-1.437,3.392-1.884
		c1.322-0.447,2.773-0.671,4.352-0.671c1.962,0,3.978,0.327,6.048,0.981c2.069,0.654,3.914,1.543,5.536,2.667l-1.664,2.624
		c-1.494-0.981-3.104-1.77-4.832-2.368c-1.728-0.597-3.467-0.896-5.216-0.896c-2.262,0-4.064,0.543-5.408,1.629
		c-1.344,1.086-2.016,2.437-2.016,4.055v0.128c0,0.894,0.256,1.671,0.768,2.331c0.512,0.66,1.184,1.225,2.016,1.693
		c0.832,0.468,1.802,0.883,2.912,1.245c1.109,0.362,2.24,0.714,3.392,1.054c1.322,0.384,2.624,0.799,3.904,1.246
		c1.28,0.447,2.432,1.022,3.456,1.724c1.024,0.703,1.845,1.544,2.464,2.522c0.618,0.979,0.928,2.192,0.928,3.641V44.3
		c0,1.448-0.288,2.757-0.864,3.928c-0.576,1.171-1.376,2.173-2.4,3.003c-1.024,0.829-2.219,1.469-3.584,1.916
		C19.443,53.592,17.971,53.816,16.393,53.816z"/>
	<path fill="#999999" d="M37.705,7.736h3.904v4.288h-3.904V7.736z M38.088,20.536h3.136v32.64h-3.136V20.536z"/>
	<path fill="#999999" d="M64.456,53.752c-1.28,0-2.475-0.172-3.584-0.512c-1.11-0.342-2.08-0.885-2.912-1.633
		c-0.832-0.746-1.483-1.685-1.952-2.815c-0.47-1.13-0.704-2.464-0.704-4V23.416h-4.736v-2.88h4.736V10.104h3.136v10.432h11.456v2.88
		H58.44v21.007c0,2.342,0.608,3.981,1.824,4.917c1.216,0.936,2.784,1.404,4.704,1.404c0.81,0,1.578-0.08,2.304-0.242
		c0.725-0.161,1.557-0.443,2.496-0.846V52.6c-0.854,0.385-1.696,0.672-2.528,0.864S65.48,53.752,64.456,53.752z"/>
	<path fill="#999999" d="M92.973,53.943c-2.138,0-4.18-0.406-6.126-1.216c-1.946-0.81-3.657-1.962-5.132-3.456
		c-1.476-1.492-2.641-3.285-3.496-5.375c-0.856-2.091-1.283-4.416-1.283-6.977v-0.128c0-2.346,0.394-4.554,1.184-6.624
		c0.789-2.069,1.877-3.872,3.264-5.408c1.386-1.536,3.018-2.752,4.896-3.648c1.877-0.896,3.925-1.344,6.144-1.344
		c2.304,0,4.373,0.438,6.208,1.312c1.834,0.875,3.402,2.08,4.704,3.616c1.301,1.536,2.304,3.339,3.008,5.408
		c0.704,2.07,1.056,4.32,1.056,6.752c0,0.299,0,0.523,0,0.672c0,0.15-0.022,0.352-0.064,0.608H80.264
		c0.128,2.038,0.578,3.843,1.348,5.413s1.732,2.908,2.887,4.012c1.155,1.104,2.471,1.943,3.947,2.516
		c1.476,0.574,3.026,0.859,4.652,0.859c2.566,0,4.737-0.49,6.513-1.472c1.776-0.981,3.348-2.197,4.717-3.647l2.176,1.92
		c-1.665,1.791-3.556,3.274-5.673,4.447C98.714,53.357,96.095,53.943,92.973,53.943z M104.072,35.32
		c-0.129-1.664-0.461-3.253-0.995-4.768c-0.535-1.514-1.284-2.858-2.246-4.032c-0.963-1.173-2.15-2.112-3.562-2.816
		c-1.412-0.704-3.059-1.056-4.941-1.056c-1.626,0-3.144,0.32-4.556,0.96c-1.412,0.64-2.642,1.526-3.69,2.656
		c-1.048,1.131-1.915,2.475-2.599,4.032c-0.684,1.558-1.091,3.232-1.219,5.024H104.072z"/>
	<path d="M117,6.456h3.136v46.72H117V6.456z"/>
	<path d="M146.951,53.943c-2.432,0-4.662-0.459-6.688-1.375c-2.026-0.918-3.786-2.145-5.279-3.681
		c-1.494-1.536-2.656-3.328-3.488-5.376s-1.248-4.225-1.248-6.528v-0.128c0-2.304,0.416-4.48,1.248-6.528
		c0.832-2.048,2.005-3.861,3.521-5.44c1.514-1.578,3.296-2.826,5.344-3.744c2.048-0.917,4.288-1.376,6.72-1.376
		s4.661,0.459,6.688,1.376c2.025,0.918,3.785,2.144,5.279,3.68c1.493,1.536,2.656,3.328,3.488,5.376s1.248,4.224,1.248,6.528v0.128
		c0,2.304-0.416,4.48-1.248,6.528s-2.006,3.862-3.52,5.44c-1.516,1.578-3.297,2.826-5.345,3.744
		C151.623,53.484,149.383,53.943,146.951,53.943z M147.079,50.936c1.929,0,3.719-0.371,5.37-1.115
		c1.65-0.742,3.064-1.74,4.244-2.994c1.179-1.252,2.101-2.729,2.765-4.428s0.997-3.503,0.997-5.416v-0.127
		c0-1.954-0.343-3.791-1.029-5.511c-0.686-1.72-1.64-3.217-2.861-4.491c-1.223-1.274-2.658-2.273-4.309-2.995
		c-1.65-0.722-3.419-1.083-5.305-1.083c-1.93,0-3.72,0.372-5.37,1.115c-1.651,0.744-3.065,1.742-4.245,2.995
		c-1.179,1.253-2.101,2.729-2.765,4.428c-0.664,1.699-0.996,3.504-0.996,5.415v0.127c0,1.954,0.343,3.791,1.029,5.511
		c0.686,1.72,1.639,3.218,2.86,4.492c1.223,1.273,2.658,2.271,4.31,2.993C143.424,50.574,145.193,50.936,147.079,50.936z"/>
	<path d="M187.748,63.544c-5.516,0-10.518-1.687-15.005-5.056l1.855-2.561c3.979,3.072,8.384,4.607,13.217,4.607
		c1.882,0,3.603-0.264,5.165-0.795c1.561-0.529,2.907-1.324,4.042-2.383c1.133-1.062,2.02-2.375,2.662-3.943
		c0.642-1.567,0.963-3.396,0.963-5.486v-4.736c-0.727,1.024-1.536,1.984-2.433,2.881c-0.896,0.896-1.898,1.695-3.008,2.399
		c-1.11,0.704-2.347,1.259-3.712,1.664c-1.366,0.406-2.859,0.608-4.48,0.608c-1.963,0-3.883-0.362-5.76-1.088
		c-1.878-0.726-3.552-1.76-5.023-3.104c-1.473-1.344-2.656-2.954-3.553-4.832c-0.896-1.877-1.344-3.989-1.344-6.336v-0.128
		c0-2.346,0.448-4.48,1.344-6.4c0.896-1.92,2.08-3.552,3.553-4.896c1.472-1.344,3.146-2.378,5.023-3.104
		c1.877-0.725,3.797-1.088,5.76-1.088c1.621,0,3.125,0.203,4.513,0.608c1.386,0.406,2.634,0.939,3.744,1.6
		c1.108,0.662,2.111,1.44,3.008,2.336c0.896,0.896,1.685,1.814,2.368,2.752v-6.528h3.136v27.583c0,2.391-0.364,4.502-1.091,6.336
		c-0.728,1.834-1.753,3.414-3.078,4.736c-1.412,1.408-3.133,2.485-5.164,3.232C192.419,63.17,190.186,63.544,187.748,63.544z
		 M187.302,47.736c1.71,0,3.378-0.299,5.004-0.896c1.625-0.598,3.068-1.439,4.33-2.527c1.263-1.089,2.278-2.39,3.049-3.904
		c0.77-1.515,1.154-3.21,1.154-5.088v-0.128c0-1.877-0.385-3.584-1.154-5.12c-0.771-1.536-1.786-2.848-3.049-3.936
		c-1.262-1.088-2.705-1.92-4.33-2.496c-1.626-0.576-3.294-0.864-5.004-0.864c-1.711,0-3.336,0.288-4.876,0.864
		c-1.54,0.576-2.888,1.398-4.042,2.464c-1.154,1.067-2.063,2.358-2.727,3.872c-0.663,1.515-0.994,3.232-0.994,5.152v0.128
		c0,1.835,0.342,3.52,1.026,5.057c0.684,1.535,1.604,2.848,2.759,3.936c1.154,1.088,2.502,1.941,4.042,2.56
		C184.03,47.427,185.634,47.736,187.302,47.736z"/>
	<path d="M230.15,53.943c-2.432,0-4.662-0.459-6.688-1.375c-2.026-0.918-3.786-2.145-5.279-3.681
		c-1.494-1.536-2.656-3.328-3.488-5.376s-1.248-4.225-1.248-6.528v-0.128c0-2.304,0.416-4.48,1.248-6.528
		c0.832-2.048,2.005-3.861,3.521-5.44c1.514-1.578,3.296-2.826,5.344-3.744c2.048-0.917,4.288-1.376,6.72-1.376
		s4.661,0.459,6.688,1.376c2.025,0.918,3.785,2.144,5.279,3.68c1.493,1.536,2.656,3.328,3.488,5.376s1.248,4.224,1.248,6.528v0.128
		c0,2.304-0.416,4.48-1.248,6.528s-2.006,3.862-3.52,5.44c-1.516,1.578-3.297,2.826-5.345,3.744
		C234.822,53.484,232.582,53.943,230.15,53.943z M230.278,50.936c1.929,0,3.719-0.371,5.37-1.115c1.65-0.742,3.064-1.74,4.244-2.994
		c1.179-1.252,2.101-2.729,2.765-4.428s0.997-3.503,0.997-5.416v-0.127c0-1.954-0.343-3.791-1.029-5.511
		c-0.686-1.72-1.64-3.217-2.861-4.491c-1.223-1.274-2.658-2.273-4.309-2.995c-1.65-0.722-3.419-1.083-5.305-1.083
		c-1.93,0-3.72,0.372-5.37,1.115c-1.651,0.744-3.065,1.742-4.245,2.995c-1.179,1.253-2.101,2.729-2.765,4.428
		c-0.664,1.699-0.996,3.504-0.996,5.415v0.127c0,1.954,0.343,3.791,1.029,5.511c0.686,1.72,1.639,3.218,2.86,4.492
		c1.223,1.273,2.658,2.271,4.31,2.993C226.623,50.574,228.393,50.936,230.278,50.936z"/>
</g>
</svg>
