<?xml version="1.0" encoding="utf-8"?>
<!-- Generator: Adobe Illustrator 16.0.4, SVG Export Plug-In . SVG Version: 6.00 Build 0)  -->
<!DOCTYPE svg PUBLIC "-//W3C//DTD SVG 1.1//EN" "http://www.w3.org/Graphics/SVG/1.1/DTD/svg11.dtd">
<svg version="1.1" id="YouTube_Logo" xmlns="http://www.w3.org/2000/svg" xmlns:xlink="http://www.w3.org/1999/xlink" x="0px"
	 y="0px" width="100px" height="100px" viewBox="0 1.418 100 100" enable-background="new 0 1.418 100 100" xml:space="preserve">
<path fill="#FFFFFF" d="M10.711,18.06c0,0,14.17,18.532,38.231,19.341c0,0-2.519-17.181,13.042-21.86c0,0,11.334-3.19,18.666,4.994
	c0,0,7.017-0.854,11.873-4.497c0,0-1.666,6.341-8.185,10.344c0,0,6.519-0.315,10.659-3.014c0,0-3.15,5.172-9.356,9.848
	c0,0,2.52,22.717-16.864,41.382c0,0-28.022,25.86-63.779,5.486c0,0,12.188,3.015,27.03-7.824c0,0-12.998-0.495-17.54-12.865
	c0,0,4.679,1.17,8.367-0.495c0,0-14.033-2.157-14.843-18.351c0,0,4.5,2.518,8.367,2.338C16.38,42.933,3.202,34.746,10.711,18.06"/>
</svg>
