<?xml version="1.0" encoding="utf-8"?>
<!-- Generator: Adobe Illustrator 16.0.4, SVG Export Plug-In . SVG Version: 6.00 Build 0)  -->
<!DOCTYPE svg PUBLIC "-//W3C//DTD SVG 1.1//EN" "http://www.w3.org/Graphics/SVG/1.1/DTD/svg11.dtd">
<svg version="1.1" id="Layer_1" xmlns="http://www.w3.org/2000/svg" xmlns:xlink="http://www.w3.org/1999/xlink" x="0px" y="0px"
	 width="100px" height="100px" viewBox="0 1.417 100 100" enable-background="new 0 1.417 100 100" xml:space="preserve">
<path fill="#FFFFFF" d="M31.82,46.87v10.914h18.046C49.139,62.464,44.411,71.51,31.82,71.51c-10.864,0-19.727-9.005-19.727-20.094
	c0-11.093,8.863-20.094,19.727-20.094c6.18,0,10.317,2.637,12.683,4.909l8.635-8.318c-5.543-5.181-12.726-8.319-21.316-8.319
	C14.227,19.596,0,33.826,0,51.417c0,17.59,14.227,31.822,31.82,31.822c18.363,0,30.549-12.909,30.549-31.094
	c0-2.092-0.231-3.684-0.507-5.274H31.82V46.87L31.82,46.87z"/>
<polyline fill="#FFFFFF" points="100,46.87 90.911,46.87 90.911,37.779 81.818,37.779 81.818,46.87 72.726,46.87 72.726,55.962 
	81.818,55.962 81.818,65.057 90.911,65.057 90.911,55.962 100,55.962 "/>
</svg>
