<?xml version="1.0" encoding="utf-8"?>
<!-- Generator: Adobe Illustrator 16.0.4, SVG Export Plug-In . SVG Version: 6.00 Build 0)  -->
<!DOCTYPE svg PUBLIC "-//W3C//DTD SVG 1.1//EN" "http://www.w3.org/Graphics/SVG/1.1/DTD/svg11.dtd">
<svg version="1.1" id="Layer_1" xmlns="http://www.w3.org/2000/svg" xmlns:xlink="http://www.w3.org/1999/xlink" x="0px" y="0px"
	 width="100px" height="100px" viewBox="0 2.836 100 100" enable-background="new 0 2.836 100 100" xml:space="preserve">
<g>
	<path fill="#FFFFFF" d="M52.109,7.836c-24.557,0-36.94,17.607-36.94,32.289c0,8.896,3.364,16.811,10.584,19.759
		c1.184,0.484,2.245,0.017,2.587-1.294c0.24-0.907,0.804-3.194,1.057-4.147c0.345-1.296,0.21-1.754-0.744-2.885
		c-2.083-2.459-3.412-5.641-3.412-10.144c0-13.066,9.774-24.759,25.45-24.759c13.879,0,21.507,8.481,21.507,19.809
		c0,14.914-6.595,27.494-16.387,27.494c-5.408,0-9.456-4.471-8.157-9.955c1.554-6.556,4.561-13.627,4.561-18.354
		c0-4.23-2.269-7.76-6.969-7.76c-5.527,0-9.968,5.719-9.968,13.381c0,4.881,1.649,8.185,1.649,8.185s-5.656,23.973-6.648,28.171
		c-1.975,8.358-0.297,18.608-0.155,19.643c0.083,0.612,0.873,0.759,1.229,0.295c0.509-0.666,7.093-8.796,9.331-16.913
		c0.633-2.303,3.637-14.21,3.637-14.21c1.796,3.427,7.043,6.444,12.628,6.444c16.613,0,27.886-15.146,27.886-35.436
		C84.83,22.113,71.845,7.836,52.109,7.836z"/>
</g>
</svg>
