<?xml version="1.0" encoding="utf-8"?>
<!-- Generator: Adobe Illustrator 19.1.0, SVG Export Plug-In . SVG Version: 6.00 Build 0)  -->
<svg version="1.1" id="Layer_1" xmlns="http://www.w3.org/2000/svg" xmlns:xlink="http://www.w3.org/1999/xlink" x="0px" y="0px"
	 viewBox="0 0 100 100" style="enable-background:new 0 0 100 100;" xml:space="preserve">
<style type="text/css">
	.st0{fill:#FFFFFF;}
</style>
<g>
	<g>
		<g>
			<path class="st0" d="M27.3,90.9h-17V36.3h17V90.9z M18.9,28.8c-5.4,0-9.9-4.4-9.9-9.9c0-5.4,4.4-9.9,9.9-9.9
				c5.4,0,9.8,4.4,9.8,9.9C28.7,24.4,24.3,28.8,18.9,28.8z M91,90.9H74V64.3c0-6.3-0.1-14.5-8.8-14.5c-8.8,0-10.2,6.9-10.2,14v27H38
				V36.3h16.3v7.5h0.2c2.3-4.3,7.8-8.8,16.1-8.8c17.2,0,20.4,11.3,20.4,26V90.9z"/>
		</g>
	</g>
</g>
</svg>
