<?xml version="1.0" encoding="utf-8"?>
<!-- Generator: Adobe Illustrator 16.0.4, SVG Export Plug-In . SVG Version: 6.00 Build 0)  -->
<!DOCTYPE svg PUBLIC "-//W3C//DTD SVG 1.1//EN" "http://www.w3.org/Graphics/SVG/1.1/DTD/svg11.dtd">
<svg version="1.1" id="Layer_1" xmlns="http://www.w3.org/2000/svg" xmlns:xlink="http://www.w3.org/1999/xlink" x="0px" y="0px"
	 width="100px" height="100px" viewBox="0 0 100 100" enable-background="new 0 0 100 100" xml:space="preserve">
<path id="White_2_" fill="#FFFFFF" d="M86.474,9H13.526C11.026,9,9,11.026,9,13.526v72.948C9,88.974,11.026,91,13.526,91h39.273
	V59.245H42.113V46.87h10.686v-9.126c0-10.591,6.469-16.358,15.917-16.358c4.525,0,8.415,0.337,9.549,0.488v11.068l-6.553,0.003
	c-5.139,0-6.134,2.441-6.134,6.024v7.901h12.256l-1.596,12.375h-10.66V91h20.896c2.5,0,4.526-2.026,4.526-4.526V13.526
	C91,11.026,88.974,9,86.474,9z"/>
</svg>
