<?xml version="1.0" encoding="utf-8"?>
<!-- Generator: Adobe Illustrator 16.0.4, SVG Export Plug-In . SVG Version: 6.00 Build 0)  -->
<!DOCTYPE svg PUBLIC "-//W3C//DTD SVG 1.1//EN" "http://www.w3.org/Graphics/SVG/1.1/DTD/svg11.dtd">
<svg version="1.1" id="Layer_1" xmlns="http://www.w3.org/2000/svg" xmlns:xlink="http://www.w3.org/1999/xlink" x="0px" y="0px"
	 width="100px" height="100px" viewBox="0 1.416 100 100" enable-background="new 0 1.416 100 100" xml:space="preserve">
<g>
	<path fill="#FFFFFF" d="M16.064,38.763c1.062,0.75,4.265,2.975,9.607,6.678c5.345,3.706,9.438,6.56,12.28,8.553
		c0.312,0.222,0.978,0.697,1.992,1.433c1.018,0.736,1.859,1.329,2.533,1.78c0.67,0.454,1.483,0.96,2.438,1.523
		c0.952,0.562,1.851,0.982,2.693,1.266c0.846,0.28,1.627,0.421,2.345,0.421h0.093c0.72,0,1.501-0.141,2.345-0.421
		c0.844-0.283,1.742-0.707,2.694-1.266c0.955-0.563,1.767-1.069,2.439-1.523c0.67-0.451,1.514-1.044,2.529-1.78
		c1.015-0.735,1.682-1.211,1.993-1.433c2.874-1.997,10.187-7.075,21.938-15.234c2.283-1.591,4.186-3.514,5.717-5.764
		c1.533-2.251,2.3-4.607,2.3-7.077c0-2.062-0.745-3.829-2.228-5.299c-1.485-1.468-3.241-2.202-5.272-2.202H15.501
		c-2.407,0-4.258,0.811-5.556,2.437c-1.295,1.626-1.943,3.656-1.943,6.094c0,1.97,0.86,4.102,2.578,6.401
		C12.297,35.644,14.126,37.451,16.064,38.763L16.064,38.763z"/>
	<path fill="#FFFFFF" d="M87.31,43.778C77.062,50.713,69.28,56.105,63.967,59.947c-1.778,1.314-3.228,2.338-4.338,3.069
		c-1.107,0.733-2.585,1.488-4.427,2.251c-1.844,0.766-3.562,1.148-5.157,1.148h-0.093c-1.596,0-3.313-0.383-5.157-1.148
		c-1.843-0.763-3.322-1.518-4.431-2.251c-1.107-0.731-2.554-1.755-4.336-3.069c-4.22-3.093-11.983-8.483-23.297-16.169
		c-1.781-1.189-3.358-2.548-4.733-4.08v37.218c0,2.064,0.732,3.828,2.202,5.296c1.471,1.472,3.237,2.201,5.299,2.201h68.996
		c2.063,0,3.829-0.729,5.298-2.201c1.473-1.467,2.205-3.231,2.205-5.295V39.698C90.655,41.199,89.093,42.558,87.31,43.778
		L87.31,43.778z"/>
</g>
</svg>
